<svg xmlns="http://www.w3.org/2000/svg" viewBox="0 0 640 512"><path d="M64 64C46.3 64 32 78.3 32 96c0 106.7 0 213.3 0 320c0 17.7 14.3 32 32 32c91.8 0 183.5 0 275.2 0c5.9 11.4 12.9 22.2 21.1 32c-98.8 0-197.5 0-296.3 0c-35.3 0-64-28.7-64-64C0 309.3 0 202.7 0 96C0 60.7 28.7 32 64 32c106.7 0 213.3 0 320 0c35.3 0 64 28.7 64 64c0 34.2 0 68.4 0 102.6c-11.2 3.2-21.9 7.4-32 12.6c0-38.4 0-76.8 0-115.2c0-17.7-14.3-32-32-32c-106.7 0-213.3 0-320 0zm136 96c0-13.3 10.7-24 24-24s24 10.7 24 24s-10.7 24-24 24s-24-10.7-24-24zm-16 64l40 0c8.8 0 16 7.2 16 16c0 37.3 0 74.7 0 112c10.7 0 21.3 0 32 0c8.8 0 16 7.2 16 16s-7.2 16-16 16c-32 0-64 0-96 0c-8.8 0-16-7.2-16-16s7.2-16 16-16c10.7 0 21.3 0 32 0c0-32 0-64 0-96c-8 0-16 0-24 0c-8.8 0-16-7.2-16-16s7.2-16 16-16zM516.4 356l35.6 0c5.2 0 9.8 3.3 11.4 8.2s-.1 10.3-4.2 13.4c-32 24-64 48-96 72c-4.5 3.4-10.8 3.2-15.1-.6s-5.4-9.9-2.6-14.9c10-18.1 20.1-36.1 30.1-54.2c-11.9 0-23.7 0-35.6 0c-5.2 0-9.8-3.3-11.4-8.2s.1-10.3 4.2-13.4c32-24 64-48 96-72c4.5-3.4 10.8-3.2 15.1 .6s5.4 9.9 2.6 14.9c-10 18.1-20.1 36.1-30.1 54.2zM352 368c0-79.5 64.5-144 144-144s144 64.5 144 144s-64.5 144-144 144s-144-64.5-144-144zM496 480c61.9 0 112-50.1 112-112s-50.1-112-112-112s-112 50.1-112 112s50.1 112 112 112z"/></svg>