<svg xmlns="http://www.w3.org/2000/svg" viewBox="0 0 576 512"><path d="M320 48c8.8 0 16 7.2 16 16c0 52.2 0 104.3 0 156.5c14.6-9.5 30.8-17 48-21.8c0-44.9 0-89.8 0-134.6c0-35.3-28.7-64-64-64C234.6 0 149.3 0 64 0C28.7 0 0 28.7 0 64C0 192 0 320 0 448c0 35.3 28.7 64 64 64c57.4 0 114.7 0 172.1 0c12.7 0 24.9-5.1 33.9-14.1c7.5-7.5 15-15 22.6-22.6C269.6 445.6 256 408.4 256 368c0-5.4 .2-10.7 .7-16c-.2 0-.5 0-.7 0c-17.7 0-32 14.3-32 32c0 26.7 0 53.3 0 80c-53.3 0-106.7 0-160 0c-8.8 0-16-7.2-16-16c0-128 0-256 0-384c0-8.8 7.2-16 16-16c85.4 0 170.7 0 256 0zM203.3 84.7c-6.2-6.2-16.4-6.2-22.6 0c-32 32-64 64-96 96c-6.2 6.2-6.2 16.4 0 22.6s16.4 6.2 22.6 0c32-32 64-64 96-96c6.2-6.2 6.2-16.4 0-22.6zm96 54.6c6.2-6.2 6.2-16.4 0-22.6s-16.4-6.2-22.6 0c-53.3 53.3-106.7 106.7-160 160c-6.2 6.2-6.2 16.4 0 22.6s16.4 6.2 22.6 0c53.3-53.3 106.7-106.7 160-160zM288 368c0-79.5 64.5-144 144-144s144 64.5 144 144s-64.5 144-144 144s-144-64.5-144-144zm160-64c0-8.8-7.2-16-16-16s-16 7.2-16 16c0 21.3 0 42.7 0 64c0 8.8 7.2 16 16 16c16 0 32 0 48 0c8.8 0 16-7.2 16-16s-7.2-16-16-16c-10.7 0-21.3 0-32 0c0-16 0-32 0-48z"/></svg>