<svg xmlns="http://www.w3.org/2000/svg" viewBox="0 0 640 512"><path d="M0 88C0 39.4 39.4 0 88 0C189.4 0 290.7 0 392 0c30.9 0 56 25.1 56 56c0 45.3 0 90.7 0 136c-16 0-32 0-48 0c0-45.3 0-90.7 0-136c0-4.4-3.6-8-8-8c-101.4 0-202.7 0-304 0C65.9 48 48 65.9 48 88c0 90.3 0 180.5 0 270.7c9.8-4.3 20.6-6.7 32-6.7c80.1 0 160.3 0 240.4 0c1.8 18.1 9.7 35 22.6 48c-87.7 0-175.3 0-263 0c-17.7 0-32 14.3-32 32s14.3 32 32 32c96 0 192 0 288 0c0-13 0-26 0-39c25.4 25.4 50.7 50.8 76.1 76.2c-4.3 6.5-11.7 10.8-20.1 10.8c-114.7 0-229.3 0-344 0c-44.2 0-80-35.8-80-80c0-2.7 .1-5.4 .4-8c-.1 0-.3 0-.4 0C0 312 0 200 0 88zm160 24l8.8-17.7c2.9-5.9 11.4-5.9 14.3 0c3 5.9 5.9 11.8 8.9 17.7c5.9 2.9 11.8 5.9 17.7 8.8c5.9 2.9 5.9 11.4 0 14.3c-5.9 3-11.8 5.9-17.7 8.9c-2.9 5.9-5.9 11.8-8.8 17.7c-2.9 5.9-11.4 5.9-14.3 0c-3-5.9-5.9-11.8-8.9-17.7c-5.9-2.9-11.8-5.9-17.7-8.8c-5.9-2.9-5.9-11.4 0-14.3c5.9-3 11.8-5.9 17.7-8.9zM264 216l16.6-38.8c2.8-6.5 11.9-6.5 14.7 0c5.6 12.9 11.1 25.9 16.7 38.8c5.6 2.4 11.2 4.8 16.8 7.2c-5.6 9.5-8.8 20.5-8.8 32.3c0 1.7 0 3.4 0 5.1c-2.7 1.1-5.3 2.3-8 3.4c-5.5 12.9-11.1 25.9-16.6 38.8c-2.8 6.5-11.9 6.5-14.7 0c-5.6-12.9-11.1-25.9-16.7-38.8c-12.9-5.5-25.9-11.1-38.8-16.6c-6.5-2.8-6.5-11.9 0-14.7c12.9-5.6 25.9-11.1 38.8-16.7zm95 46.6c0-17.6 14.3-32 32-32c27.6 0 55.1 0 82.7 0c17 0 33.3 6.7 45.3 18.7c35.8 35.8 71.5 71.6 107.3 107.4c18.7 18.7 18.7 49.1 0 67.9c-24.5 24.4-48.9 48.9-73.4 73.3c-18.7 18.7-49.1 18.7-67.9 0c-35.8-35.8-71.5-71.5-107.3-107.3c-12-12-18.7-28.3-18.7-45.2c0-27.6 0-55.2 0-82.8zm80 72c13.3 0 24-10.7 24-24s-10.7-24-24-24s-24 10.7-24 24s10.7 24 24 24z"/></svg>