<svg xmlns="http://www.w3.org/2000/svg" viewBox="0 0 640 512"><path d="M201.9 330.6l-38.1 38.1c17.2 17.2 34.3 34.3 51.5 51.5c12.7-12.7 25.4-25.4 38.1-38.1c9-9 21.2-14.1 33.9-14.1c16 0 32 0 48 0c1.2-1.7 2.4-3.3 3.6-5c12.6 9.9 25.2 19.9 37.8 29.8c-.8 1.1-1.5 2.1-2.3 3.2c-9 12.6-23.5 20-39 20c-16 0-32 0-48 0c-14.6 14.6-29.1 29.1-43.7 43.7c-10.7 10.7-26 14.1-39.5 10.1c-10.9 10.9-21.9 21.9-32.8 32.8c-6 6-14.1 9.4-22.6 9.4c-28.3 0-56.5 0-84.8 0c-17.7 0-32-14.3-32-32c0-1.6 0-3.1 0-4.7c0-8.5 3.4-16.6 9.4-22.6c24.3-24.3 48.5-48.5 72.8-72.8c-4-13.6-.6-28.8 10.1-39.5c14.6-14.6 29.1-29.2 43.7-43.8c0-16 0-32 0-48c0-6.1 1.2-12.1 3.3-17.6c14.9 11.7 29.8 23.5 44.7 35.2c0 10.1 0 20.3 0 30.4c0 12.7-5.1 24.9-14.1 33.9c0 .1 0 0 0 .1zM534.8 90.2c.8-1.1 1.2-2.4 1.2-3.7c0-1.7-.7-3.3-1.9-4.5C523.4 71.3 512.7 60.6 502 49.9c-1.2-1.2-2.8-1.9-4.5-1.9c-1.3 0-2.6 .4-3.7 1.2C424.4 99 355 148.8 285.7 198.6c36.5 28.6 73.1 57.3 109.6 85.9c46.5-64.8 93-129.6 139.5-194.3zm-69-80C475 3.6 486.1 0 497.5 0c14.4 0 28.2 5.7 38.4 15.9c10.7 10.7 21.5 21.5 32.2 32.2c10.2 10.2 15.9 24 15.9 38.4c0 11.4-3.6 22.5-10.2 31.7c-46.9 65.3-93.8 130.7-140.7 196C499 365.8 564.9 417.5 630.8 469.1c10.4 8.2 12.3 23.3 4.1 33.7s-23.3 12.3-33.7 4.1C403.8 352.2 206.5 197.6 9.2 42.9C-1.2 34.7-3.1 19.6 5.1 9.2S28.4-3.1 38.8 5.1C108 59.3 177.1 113.5 246.3 167.7c73.2-52.5 146.3-105 219.5-157.5zM144.7 417.3L97.9 464c14.7 0 29.4 0 44.1 0c8.2-8.2 16.5-16.5 24.7-24.7l-22.1-22.1c.1 .1 0 0 .1 .1zM280 464l187.1 0c20.3 16 40.6 32 60.9 48c-82.7 0-165.3 0-248 0c-13.3 0-24-10.7-24-24s10.7-24 24-24z"/></svg>