<svg xmlns="http://www.w3.org/2000/svg" viewBox="0 0 640 512"><path d="M0 88C0 39.4 39.4 0 88 0C189.4 0 290.7 0 392 0c30.9 0 56 25.1 56 56c0 34.7 0 69.3 0 104c-16.7 0-32.8 2.6-48 7.3c0-37.1 0-74.2 0-111.3c0-4.4-3.6-8-8-8c-101.4 0-202.7 0-304 0C65.9 48 48 65.9 48 88c0 90.3 0 180.5 0 270.7c9.8-4.3 20.6-6.7 32-6.7c70.4 0 140.8 0 211.2 0c3.5 17.2 9.7 33.3 18.2 48c-76.5 0-152.9 0-229.4 0c-17.7 0-32 14.3-32 32s14.3 32 32 32c96 0 192 0 288 0c0-1.8 0-3.6 0-5.4c23.2 13.4 50 21.1 78.6 21.4c.9 2.5 1.4 5.2 1.4 8c0 13.3-10.7 24-24 24c-114.7 0-229.3 0-344 0c-44.2 0-80-35.8-80-80c0-2.7 .1-5.4 .4-8c-.1 0-.3 0-.4 0C0 312 0 200 0 88zm152 24l176 0c13.3 0 24 10.7 24 24s-10.7 24-24 24c-58.7 0-117.3 0-176 0c-13.3 0-24-10.7-24-24s10.7-24 24-24zm0 80l176 0c6.2 0 11.9 2.4 16.2 6.2c-13.8 11.8-25.6 25.9-34.8 41.8c-52.5 0-104.9 0-157.4 0c-13.3 0-24-10.7-24-24s10.7-24 24-24zM528 320c0-28.6-15.2-55-40-69.3s-55.2-14.3-80 0s-40 40.7-40 69.3s15.2 55 40 69.3s55.2 14.3 80 0s40-40.7 40-69.3zm-8.1 105.9C499.4 439.8 474.7 448 448 448c-70.7 0-128-57.3-128-128s57.3-128 128-128s128 57.3 128 128c0 26.7-8.2 51.4-22.1 71.9c26.4 26.4 52.7 52.7 79.1 79.1c9.4 9.4 9.4 24.6 0 33.9s-24.6 9.4-33.9 0c-26.4-26.4-52.7-52.7-79.1-79.1c-.1 .1 0 0-.1 .1z"/></svg>