<svg xmlns="http://www.w3.org/2000/svg" viewBox="0 0 640 512"><path d="M256 144c17.1 0 33-9.1 41.6-24s8.6-33.1 0-48S273.1 48 256 48s-33 9.1-41.6 24s-8.6 33.1 0 48s24.4 24 41.6 24zM256 0c34.3 0 66 18.3 83.1 48s17.1 66.3 0 96s-48.8 48-83.1 48s-66-18.3-83.1-48s-17.1-66.3 0-96S221.7 0 256 0zM228 279l-.2-.1c-.7-.5-2.4-1.5-5.2-2.9c-5.5-2.8-15.4-7.3-30.6-12.2c-28-9-74.2-19.3-144-22.7c0 58.8 0 117.5 0 176.3c84.9 5 147.1 22.3 184 35.7c0-57 0-114.1 0-171.1c-1.3-1-2.7-2-4-3zm52 3l0 171.1c14.3-5.2 32.3-10.9 54-16.3c6.7 15.7 15.5 30.2 26.2 43.1c-46 10.2-76.1 22.7-89 28.6c-4.8 2.2-9.9 3.5-15.1 3.5s-10.4-1.3-15.1-3.5c-21.9-10.1-93.9-39.1-208.8-43.8c-17.7-.7-32-15-32-32.7c0-69.3 0-138.7 0-208c0-17.7 14.4-32.1 32-31.5c-.1 0-.1 0-.2 0C199.2 197.4 256 240 256 240s56.8-42.6 224-47.5c.8 0 1.6 0 2.4 0c-47.6 3.7-90 26.3-119.5 60.3c-17.5 3.5-31.6 7.3-42.9 10.9c-15.1 4.9-25 9.4-30.6 12.2c-2.8 1.4-4.5 2.4-5.2 2.9c-.1 0-.1 .1-.2 .1c-1.3 1-2.7 2-4 3zm360 86c0 79.5-64.5 144-144 144s-144-64.5-144-144s64.5-144 144-144s144 64.5 144 144zM496 416c-13.3 0-24 10.7-24 24s10.7 24 24 24s24-10.7 24-24s-10.7-24-24-24zm16-128c0-8.8-7.2-16-16-16s-16 7.2-16 16c0 26.7 0 53.3 0 80c0 8.8 7.2 16 16 16s16-7.2 16-16c0-26.7 0-53.3 0-80z"/></svg>