<svg xmlns="http://www.w3.org/2000/svg" viewBox="0 0 640 512"><path d="M448 464c4.8 0 9.1-2.1 12.1-5.5c12.6 9.9 25.1 19.8 37.7 29.7C486 502.7 468.1 512 448 512c-85.4 0-170.7 0-256 0c-35.3 0-64-28.7-64-64c0-83.7 0-167.4 0-251.1c16 12.6 32 25.2 48 37.8c0 71.1 0 142.2 0 213.3c0 8.8 7.2 16 16 16c85.4 0 170.7 0 256 0zm16-304l-80 0c-17.7 0-32-14.3-32-32c0-26.7 0-53.3 0-80c-53.3 0-106.7 0-160 0c-8.8 0-16 7.2-16 16c0 16.2 0 32.4 0 48.6c96 75.2 192 150.5 288 225.7c0-59.5 0-118.9 0-178.4zM128 64c0-35.3 28.7-64 64-64c55.2 0 110.3 0 165.5 0c17 0 33.3 6.7 45.3 18.7C433 48.9 463.1 79 493.3 109.2c12 12 18.7 28.3 18.7 45.3c0 73.8 0 147.7 0 221.5c39.6 31 79.2 62.1 118.8 93.1c10.4 8.2 12.3 23.3 4.1 33.7s-23.3 12.3-33.7 4.1C403.8 352.2 206.5 197.6 9.2 42.9C-1.2 34.7-3.1 19.6 5.1 9.2S28.4-3.1 38.8 5.1C68.5 28.4 98.3 51.7 128 75c0-3.7 0-7.3 0-11z"/></svg>