<svg xmlns="http://www.w3.org/2000/svg" viewBox="0 0 640 512"><path d="M64 80c-8.8 0-16 7.2-16 16c0 106.7 0 213.3 0 320c0 8.8 7.2 16 16 16c89.4 0 178.7 0 268 0c6.9 17.5 16.5 33.7 28.3 48c-98.8 0-197.5 0-296.3 0c-35.3 0-64-28.7-64-64C0 309.3 0 202.7 0 96C0 60.7 28.7 32 64 32c106.7 0 213.3 0 320 0c35.3 0 64 28.7 64 64c0 34.2 0 68.4 0 102.6c-17.2 4.9-33.4 12.3-48 21.8c0-41.5 0-83 0-124.5c0-8.8-7.2-16-16-16c-106.7 0-213.3 0-320 0zM184 336l24 0c0-21.3 0-42.7 0-64c-8 0-16 0-24 0c-13.3 0-24-10.7-24-24s10.7-24 24-24c16 0 32 0 48 0c13.3 0 24 10.7 24 24c0 29.3 0 58.7 0 88l8 0c13.3 0 24 10.7 24 24s-10.7 24-24 24c-26.7 0-53.3 0-80 0c-13.3 0-24-10.7-24-24s10.7-24 24-24zm40-208c17.7 0 32 14.3 32 32s-14.3 32-32 32s-32-14.3-32-32s14.3-32 32-32zM640 368c0 79.5-64.5 144-144 144s-144-64.5-144-144s64.5-144 144-144s144 64.5 144 144zm-93.5-66.2c2.8-5 1.7-11.1-2.6-14.9s-10.6-4-15.1-.6c-32 24-64 48-96 72c-4.1 3.1-5.8 8.5-4.2 13.4s6.2 8.2 11.4 8.2c11.9 0 23.7 0 35.6 0c-10 18.1-20.1 36.1-30.1 54.2c-2.8 5-1.7 11.1 2.6 14.9s10.6 4 15.1 .6c32-24 64-48 96-72c4.1-3.1 5.8-8.5 4.2-13.4s-6.2-8.2-11.4-8.2c-11.9 0-23.7 0-35.6 0c10-18.1 20.1-36.1 30.1-54.2z"/></svg>