<svg xmlns="http://www.w3.org/2000/svg" viewBox="0 0 640 512"><path d="M184 0L488 0c30.9 0 56 25.1 56 56c0 96 0 192 0 288c0 16.8-7.4 31.8-19.1 42.1c35.3 27.7 70.6 55.3 105.9 83c10.4 8.2 12.3 23.3 4.1 33.7s-23.3 12.3-33.7 4.1C403.8 352.2 206.5 197.6 9.2 42.9C-1.2 34.7-3.1 19.6 5.1 9.2S28.4-3.1 38.8 5.1C60 21.7 81.2 38.3 102.4 55C115.5 22.7 147.1 0 184 0zM488 352c4.4 0 8-3.6 8-8c0-96 0-192 0-288c0-4.4-3.6-8-8-8c-13.3 0-26.7 0-40 0c0 52.9 0 105.8 0 158.7c0 13.4-15.5 20.9-26 12.5c-18-14.4-36-28.8-54-43.2c-18 14.4-36 28.8-54 43.2c-.3 .3-.7 .5-1 .8c56.2 44 112.3 88 168.4 132c2.2 0 4.4 0 6.6 0zM288 48L184 48c-22 0-39.8 17.7-40 39.6c48 37.6 96 75.2 144 112.9c0-50.8 0-101.6 0-152.4zM520 512l-344 0c-44.2 0-80-35.8-80-80c0-2.7 .1-5.4 .4-8c-.1 0-.3 0-.4 0c0-84.1 0-168.3 0-252.4c16 12.6 32 25.2 48 37.8c0 49.8 0 99.5 0 149.2c9.8-4.3 20.6-6.7 32-6.7c49.6 0 99.3 0 148.9 0c20.3 16 40.6 32 60.9 48c-70 0-139.9 0-209.8 0c-17.7 0-32 14.3-32 32s14.3 32 32 32c96 0 192 0 288 0c0-.8 0-1.6 0-2.4c20.9 16.5 41.9 33 62.8 49.5c-2.1 .6-4.4 1-6.8 1z"/></svg>