<svg xmlns="http://www.w3.org/2000/svg" viewBox="0 0 640 512"><path d="M0 88C0 39.4 39.4 0 88 0C189.4 0 290.7 0 392 0c30.9 0 56 25.1 56 56c0 47.5 0 95.1 0 142.6c-17.2 4.9-33.4 12.3-48 21.8c0-54.8 0-109.6 0-164.5c0-4.4-3.6-8-8-8c-101.4 0-202.7 0-304 0C65.9 48 48 65.9 48 88c0 90.3 0 180.5 0 270.7c9.8-4.3 20.6-6.7 32-6.7c80.3 0 160.5 0 240.7 0c-.5 5.3-.7 10.6-.7 16c0 10.9 1 21.6 2.9 32c-81 0-161.9 0-242.9 0c-17.7 0-32 14.3-32 32s14.3 32 32 32c89.5 0 179 0 268.5 0c12.3 18.8 28 35.1 46.3 48c-105 0-209.9 0-314.8 0c-44.2 0-80-35.8-80-80c0-2.7 .1-5.4 .4-8c-.1 0-.3 0-.4 0C0 312 0 200 0 88zm152 24l176 0c13.3 0 24 10.7 24 24s-10.7 24-24 24c-58.7 0-117.3 0-176 0c-13.3 0-24-10.7-24-24s10.7-24 24-24zm0 80l176 0c13.3 0 24 10.7 24 24s-10.7 24-24 24c-58.7 0-117.3 0-176 0c-13.3 0-24-10.7-24-24s10.7-24 24-24zM640 368c0 79.5-64.5 144-144 144s-144-64.5-144-144s64.5-144 144-144s144 64.5 144 144zm-93.5-66.2c2.8-5 1.7-11.1-2.6-14.9s-10.6-4-15.1-.6c-32 24-64 48-96 72c-4.1 3.1-5.8 8.5-4.2 13.4s6.2 8.2 11.4 8.2c11.9 0 23.7 0 35.6 0c-10 18.1-20.1 36.1-30.1 54.2c-2.8 5-1.7 11.1 2.6 14.9s10.6 4 15.1 .6c32-24 64-48 96-72c4.1-3.1 5.8-8.5 4.2-13.4s-6.2-8.2-11.4-8.2c-11.9 0-23.7 0-35.6 0c10-18.1 20.1-36.1 30.1-54.2z"/></svg>