<svg xmlns="http://www.w3.org/2000/svg" viewBox="0 0 640 512"><path d="M256 48C141.1 48 48 141.1 48 256s93.1 208 208 208c13.3 0 24 10.7 24 24s-10.7 24-24 24C114.6 512 0 397.4 0 256S114.6 0 256 0C375.4 0 475.6 81.7 504 192.2c-2.6-.1-5.3-.2-8-.2c-14 0-27.5 1.6-40.6 4.7C429.9 110.7 350.3 48 256 48zm0 328c-66.3 0-120-53.7-120-120s53.7-120 120-120c28.8 0 55.2 10.1 75.8 27c4.3-6.6 11.7-11 20.2-11c13.3 0 24 10.7 24 24c0 21.1 0 42.2 0 63.3c-32 29.9-52.9 71.5-55.7 118C301.7 369.1 279.7 376 256 376zm72-120c0-25.7-13.7-49.5-36-62.4s-49.7-12.9-72 0s-36 36.6-36 62.4s13.7 49.5 36 62.4s49.7 12.9 72 0s36-36.6 36-62.4zm24 112c0-79.5 64.5-144 144-144s144 64.5 144 144s-64.5 144-144 144s-144-64.5-144-144zM496 480c30.2 0 57.5-11.9 77.7-31.3c-6.2-19-24-32.7-45.1-32.7c-21.7 0-43.5 0-65.2 0c-21 0-38.9 13.7-45.1 32.7C438.5 468.1 465.8 480 496 480zm0-96c26.5 0 48-21.5 48-48s-21.5-48-48-48s-48 21.5-48 48s21.5 48 48 48z"/></svg>