<svg xmlns="http://www.w3.org/2000/svg" viewBox="0 0 640 512"><path d="M256 48c74.3 0 143 39.6 180.1 104c8.2 14.3 14.7 29.3 19.2 44.7c13-3.1 26.6-4.7 40.6-4.7c2.7 0 5.3 .1 7.9 .2c-5.7-22.2-14.5-43.8-26.2-64.2C432 48.8 347.5 0 256 0S80 48.8 34.3 128s-45.7 176.8 0 256S164.5 512 256 512c38.9 0 76.5-8.8 110.4-25c-11-12-20.3-25.5-27.7-40.1C313 458 284.9 464 256 464c-74.3 0-143-39.6-180.1-104s-37.2-143.6 0-208S181.7 48 256 48zM216 336c-13.3 0-24 10.7-24 24s10.7 24 24 24c26.7 0 53.3 0 80 0c13.3 0 24-10.7 24-24s-10.7-24-24-24l-8 0c0-29.3 0-58.7 0-88c0-13.3-10.7-24-24-24c-16 0-32 0-48 0c-13.3 0-24 10.7-24 24s10.7 24 24 24c8 0 16 0 24 0c0 21.3 0 42.7 0 64c-8 0-16 0-24 0zm40-144c17.7 0 32-14.3 32-32s-14.3-32-32-32s-32 14.3-32 32s14.3 32 32 32zM640 368c0 79.5-64.5 144-144 144s-144-64.5-144-144s64.5-144 144-144s144 64.5 144 144zm-93.5-66.2c2.8-5 1.7-11.1-2.6-14.9s-10.6-4-15.1-.6c-32 24-64 48-96 72c-4.1 3.1-5.8 8.5-4.2 13.4s6.2 8.2 11.4 8.2c11.9 0 23.7 0 35.6 0c-10 18.1-20.1 36.1-30.1 54.2c-2.8 5-1.7 11.1 2.6 14.9s10.6 4 15.1 .6c32-24 64-48 96-72c4.1-3.1 5.8-8.5 4.2-13.4s-6.2-8.2-11.4-8.2c-11.9 0-23.7 0-35.6 0c10-18.1 20.1-36.1 30.1-54.2z"/></svg>