<svg xmlns="http://www.w3.org/2000/svg" viewBox="0 0 640 512"><path d="M118.6 80c-11.5 0-21.4 7.9-24 19.1c-10.1 43.1-20.1 86.1-30.2 129.2C85.2 215.4 109.7 208 136 208c55.1 0 102.6 32.8 124 80c18.7 0 37.3 0 56 0c18.6-41.2 57.1-71.4 103.3-78.4C360.5 238.1 320 298.3 320 368c0 18.7 2.9 36.7 8.3 53.7c-13.9-20-22.6-43.9-24.1-69.7c-10.8 0-21.6 0-32.4 0c-4.1 71.4-63.3 128-135.8 128C60.9 480 0 419.1 0 344c0-1.9 0-3.8 .1-5.6c-.1-.8-.1-1.6-.1-2.4c0-3.5 0-7 0-10.5c0-21.4 2.5-42.8 7.3-63.6C20.8 204 34.4 146.1 47.9 88.2C55.5 55.3 84.8 32 118.6 32c9.2 0 18.4 1.8 27 5.2c10.4 4.2 20.9 8.3 31.3 12.5c12.3 4.9 18.3 18.9 13.4 31.2s-18.9 18.3-31.2 13.4c-10.4-4.2-20.9-8.3-31.3-12.5c-2.9-1.2-6-1.8-9.2-1.8zM481.4 99.1c-2.6-11.2-12.6-19.1-24-19.1c-3.1 0-6.2 .6-9.2 1.8c-10.4 4.2-20.9 8.3-31.3 12.5c-12.3 4.9-26.3-1.1-31.2-13.4s1.1-26.3 13.4-31.2c10.4-4.2 20.9-8.3 31.3-12.5c8.6-3.4 17.7-5.2 27-5.2c33.8 0 63.1 23.3 70.8 56.2c8.9 38 17.7 75.9 26.5 113.9c-16.2-5.8-33.6-9.2-51.6-9.9c-7.3-31-14.5-62-21.7-93zM136 432c31.4 0 60.5-16.8 76.2-44s15.7-60.8 0-88s-44.8-44-76.2-44s-60.5 16.8-76.2 44s-15.7 60.8 0 88s44.8 44 76.2 44zm216-64c0-79.5 64.5-144 144-144s144 64.5 144 144s-64.5 144-144 144s-144-64.5-144-144zm211.3-20.7c6.2-6.2 6.2-16.4 0-22.6s-16.4-6.2-22.6 0c-20.2 20.2-40.5 40.5-60.7 60.7c-9.6-9.6-19.1-19.1-28.7-28.7c-6.2-6.2-16.4-6.2-22.6 0s-6.2 16.4 0 22.6c13.3 13.3 26.7 26.7 40 40c6.2 6.2 16.4 6.2 22.6 0c24-24 48-48 72-72z"/></svg>