<svg xmlns="http://www.w3.org/2000/svg" viewBox="0 0 640 512"><path d="M96 0C43 0 0 43 0 96C0 202.7 0 309.3 0 416c0 53 43 96 96 96c96 0 192 0 288 0c3.6 0 7.2 0 10.8 0c-23.3-16.5-42.5-38.4-55.6-64c-81.1 0-162.2 0-243.2 0c-17.7 0-32-14.3-32-32s14.3-32 32-32c74.9 0 149.8 0 224.7 0c-.5-5.3-.7-10.6-.7-16c0-80.6 54.1-148.5 128-169.4c0-66.2 0-132.4 0-198.6L416 0 384 0C288 0 192 0 96 0zm32 128l224 0c0 10.7 0 21.3 0 32c-74.7 0-149.3 0-224 0c0-10.7 0-21.3 0-32zm224 64l0 32c-74.7 0-149.3 0-224 0c0-10.7 0-21.3 0-32c74.7 0 149.3 0 224 0zm0 176c0-79.5 64.5-144 144-144s144 64.5 144 144s-64.5 144-144 144s-144-64.5-144-144zm222.6-32L552 313.4c-24 24-48 48-72 72c-13.3-13.3-26.7-26.7-40-40c-7.5 7.5-15.1 15.1-22.6 22.6c20.9 20.9 41.8 41.8 62.6 62.6c31.5-31.5 63.1-63.1 94.6-94.6z"/></svg>